<svg xmlns="http://www.w3.org/2000/svg" viewBox="0 0 400 250">
  <defs>
    <linearGradient id="bg" x1="0%" y1="0%" x2="100%" y2="100%">
      <stop offset="0%" style="stop-color:#0a0a0a;stop-opacity:1" />
      <stop offset="100%" style="stop-color:#1a1a1a;stop-opacity:1" />
    </linearGradient>
    <linearGradient id="accent" x1="0%" y1="0%" x2="100%" y2="100%">
      <stop offset="0%" style="stop-color:#06b6d4;stop-opacity:1" />
      <stop offset="100%" style="stop-color:#0891b2;stop-opacity:1" />
    </linearGradient>
  </defs>
  <rect width="400" height="250" fill="url(#bg)"/>
  <g transform="translate(200, 125)" opacity="0.9">
    <!-- House -->
    <path d="M0 -35 L-40 0 L-30 0 L-30 30 L30 30 L30 0 L40 0 Z" fill="url(#accent)"/>
    <!-- Window -->
    <rect x="-15" y="5" width="12" height="12" fill="#0a0a0a"/>
    <rect x="3" y="5" width="12" height="12" fill="#0a0a0a"/>
    <!-- WiFi signals -->
    <path d="M0 -50 Q-15 -60 -30 -50" stroke="#22d3ee" stroke-width="2" fill="none"/>
    <path d="M0 -50 Q15 -60 30 -50" stroke="#22d3ee" stroke-width="2" fill="none"/>
    <path d="M0 -50 Q-10 -57 -20 -50" stroke="#22d3ee" stroke-width="2" fill="none"/>
    <path d="M0 -50 Q10 -57 20 -50" stroke="#22d3ee" stroke-width="2" fill="none"/>
    <circle cx="0" cy="-50" r="3" fill="#22d3ee"/>
  </g>
</svg>
