<svg xmlns="http://www.w3.org/2000/svg" viewBox="0 0 400 250">
  <defs>
    <linearGradient id="bg" x1="0%" y1="0%" x2="100%" y2="100%">
      <stop offset="0%" style="stop-color:#0a0a0a;stop-opacity:1" />
      <stop offset="100%" style="stop-color:#1a1a1a;stop-opacity:1" />
    </linearGradient>
    <linearGradient id="accent" x1="0%" y1="0%" x2="100%" y2="100%">
      <stop offset="0%" style="stop-color:#06b6d4;stop-opacity:1" />
      <stop offset="100%" style="stop-color:#0891b2;stop-opacity:1" />
    </linearGradient>
  </defs>
  <rect width="400" height="250" fill="url(#bg)"/>
  <g transform="translate(200, 125)" opacity="0.9">
    <!-- Chat bubble -->
    <path d="M-40 -30 h80 a10 10 0 0 1 10 10 v40 a10 10 0 0 1 -10 10 h-50 l-15 15 v-15 h-15 a10 10 0 0 1 -10 -10 v-40 a10 10 0 0 1 10 -10" fill="url(#accent)"/>
    <!-- Text lines -->
    <rect x="-25" y="-15" width="50" height="4" fill="#0a0a0a" rx="2"/>
    <rect x="-25" y="-3" width="35" height="4" fill="#0a0a0a" rx="2"/>
    <rect x="-25" y="9" width="45" height="4" fill="#0a0a0a" rx="2"/>
  </g>
</svg>
